<!-- <?xml version="1.0" encoding="UTF-8"?> -->
<svg version="1.1" xmlns="http://www.w3.org/2000/svg" width="512" height="512">
<path  d="M0 0 C9.27719812 6.37483446 16.55897356 15.64628416 19.7578125 26.5390625 C20.09765625 28.44140625 20.09765625 28.44140625 20.09765625 32.44140625 C20.70727288 32.43950765 21.31688951 32.43760905 21.94497937 32.43565291 C58.06095079 32.32380755 94.17689663 32.23799629 130.29300572 32.1860796 C134.62771048 32.17982593 138.9624149 32.17335433 143.29711914 32.16674805 C144.16009526 32.16543649 145.02307137 32.16412494 145.91219828 32.16277365 C159.89273842 32.14100608 173.87317595 32.10157714 187.85365518 32.05564227 C202.1946603 32.00891518 216.53561161 31.9811188 230.87668973 31.97096378 C239.72880501 31.96409681 248.5806303 31.94239405 257.43265633 31.90182392 C263.49954291 31.87543176 269.56627918 31.86739721 275.63321903 31.87389936 C279.13572335 31.87710783 282.63772029 31.87212622 286.14013481 31.84537888 C289.93544098 31.82060937 293.72949262 31.82644414 297.52482605 31.84013367 C298.6347459 31.82556946 299.74466575 31.81100525 300.88821954 31.79599971 C308.30788731 31.86865412 308.30788731 31.86865412 312.28970814 34.75632954 C314.65290287 38.26603156 314.70176967 40.28812652 314.09765625 44.44140625 C312.33750494 47.62644195 311.59874709 48.27437597 308.09765625 49.44140625 C306.47735781 49.53208451 304.85354369 49.56515935 303.23071003 49.56445408 C302.22151896 49.56644513 301.21232789 49.56843618 300.17255527 49.57048756 C299.06070068 49.56757472 297.9488461 49.56466188 296.80329895 49.56166077 C295.6246726 49.56251519 294.44604624 49.56336962 293.23170394 49.56424993 C289.95481409 49.56561509 286.67796354 49.56247904 283.40107834 49.55747187 C279.86940074 49.55316186 276.33772503 49.55461419 272.80604553 49.55537415 C266.68537268 49.55589903 260.56471047 49.55275592 254.4440403 49.54713631 C245.5945298 49.53901652 236.74502446 49.53640559 227.89551064 49.53514832 C213.5384918 49.53295855 199.18147864 49.52630051 184.82446289 49.5168457 C170.87622099 49.50766964 156.92798063 49.50058975 142.97973633 49.49633789 C142.12026977 49.49607517 141.26080322 49.49581244 140.37529222 49.49554176 C136.06369161 49.49423674 131.75209099 49.49297303 127.44049037 49.49172986 C91.65954165 49.4813596 55.87859939 49.46374333 20.09765625 49.44140625 C19.95070312 50.70742676 19.80375 51.97344727 19.65234375 53.27783203 C18.32257022 64.73400598 9.92445629 73.71647642 1.28515625 80.75390625 C-10.14563833 88.81731244 -23.333147 90.89784423 -36.9921875 89.015625 C-49.5157794 86.33317365 -60.20047413 79.46818398 -67.6171875 69.02734375 C-71.36960367 63.10054462 -74.90234375 56.59842344 -74.90234375 49.44140625 C-75.76898793 49.44555432 -75.76898793 49.44555432 -76.65314007 49.44978619 C-90.71652494 49.51606208 -104.77988637 49.56569461 -118.84339428 49.59684277 C-125.64443256 49.61230647 -132.44536655 49.63338637 -139.24633789 49.66772461 C-145.80801981 49.70083886 -152.36962176 49.71825327 -158.93139076 49.72603798 C-161.4364626 49.73158667 -163.94152842 49.7424217 -166.44655418 49.75859642 C-169.95172383 49.78033154 -173.45644387 49.78337474 -176.96166992 49.78198242 C-178.000327 49.79276825 -179.03898407 49.80355408 -180.1091156 49.81466675 C-188.99548849 49.77639967 -188.99548849 49.77639967 -192.90234375 46.44140625 C-194.47169969 43.30269437 -194.25435478 40.90284803 -193.90234375 37.44140625 C-191.86950213 34.4540744 -190.25437771 32.70624256 -186.62134361 31.99460411 C-183.69244217 31.82375724 -180.80343072 31.82346026 -177.86987305 31.8737793 C-176.75723587 31.87304916 -175.64459869 31.87231903 -174.49824524 31.87156677 C-170.82385359 31.87504772 -167.15073247 31.91393591 -163.4765625 31.953125 C-160.92780754 31.96245124 -158.37904362 31.96956824 -155.83027649 31.9745636 C-149.80947431 31.99169783 -143.78921677 32.03109575 -137.76863271 32.08131105 C-130.91260527 32.13724987 -124.05655578 32.16470228 -117.20035684 32.18978822 C-103.10076726 32.24201365 -89.00158045 32.32992736 -74.90234375 32.44140625 C-74.76925308 31.82321518 -74.63616241 31.20502411 -74.4990387 30.56809998 C-74.3221904 29.7572847 -74.1453421 28.94646942 -73.96313477 28.11108398 C-73.7887941 27.30726791 -73.61445343 26.50345184 -73.43482971 25.67527771 C-70.8116415 14.67054574 -62.789782 5.81343036 -53.65234375 -0.43359375 C-36.27438073 -10.64314702 -17.33069141 -9.88848596 0 0 Z M-51.90234375 20.44140625 C-57.77512934 28.03269144 -59.78582454 35.92261318 -58.90234375 45.44140625 C-57.44534921 54.07741027 -53.44843128 60.69048244 -46.69140625 66.265625 C-38.59030394 71.97510496 -30.70596875 73.41926143 -20.90234375 72.44140625 C-12.29769879 70.4595784 -5.25841072 65.31931743 -0.265625 58.0625 C4.50401404 49.76688138 5.64115075 41.08959038 3.44921875 31.6484375 C0.13278239 22.5069783 -6.14959137 15.66235974 -14.90234375 11.44140625 C-28.58912956 6.12396826 -42.15294567 9.75832417 -51.90234375 20.44140625 Z " fill="#000000" transform="translate(195.90234375,36.55859375)"/>
<path d="M0 0 C10.06464765 8.0133485 16.3626788 18.18779512 18 31 C18.63500827 30.99886084 19.27001653 30.99772168 19.92426747 30.996548 C57.5433443 30.92944285 95.1624123 30.87795504 132.78153671 30.84680401 C137.29649658 30.8430518 141.81145633 30.83916884 146.32641602 30.83520508 C147.22527951 30.83441815 148.124143 30.83363122 149.05024479 30.83282044 C163.61273663 30.81975941 178.17519303 30.79610174 192.73766383 30.76854161 C207.67531968 30.74050679 222.61295694 30.72382782 237.55063802 30.71773452 C246.77118415 30.71361408 255.99163007 30.70059069 265.21214537 30.6762506 C271.53130818 30.66041714 277.85041905 30.65559421 284.16960027 30.65949587 C287.81779351 30.66142115 291.4658114 30.6584285 295.11397362 30.64238358 C299.06658227 30.62512631 303.01896111 30.63102214 306.97160339 30.63923645 C308.12821462 30.63049793 309.28482585 30.6217594 310.47648591 30.61275607 C311.53494322 30.61872922 312.59340053 30.62470236 313.6839323 30.63085651 C314.59640026 30.62971735 315.50886821 30.62857819 316.44898671 30.62740451 C319.5643617 31.08242945 321.456974 32.17340942 324 34 C325.56935594 37.13871188 325.35201103 39.53855822 325 43 C323.23071003 45.69288921 323.23071003 45.69288921 320 48 C315.98199221 48.74336533 312.00949997 48.6524243 307.93363953 48.60127258 C306.69613459 48.60554471 305.45862965 48.60981683 304.18362457 48.61421841 C300.7511137 48.62103186 297.32002758 48.60540371 293.88768899 48.58032811 C290.1856295 48.55873902 286.48361413 48.56604242 282.7815094 48.56983948 C276.36829384 48.57246146 269.9553326 48.55677191 263.54218102 48.52865028 C254.26988133 48.48801777 244.99770463 48.47499334 235.72532556 48.46871033 C220.68164147 48.45776674 205.63809292 48.42449082 190.59448242 48.37719727 C175.98088255 48.33130333 161.36731949 48.29591061 146.75366211 48.2746582 C145.85290306 48.27334459 144.95214402 48.27203097 144.02408924 48.27067754 C139.50525312 48.26415236 134.98641675 48.25783382 130.4675802 48.25161803 C92.97829109 48.19978302 55.4891561 48.111716 18 48 C17.86134521 49.08498779 17.72269043 50.16997559 17.57983398 51.2878418 C15.84920731 62.36749596 8.78348062 72.31406699 0 79 C-12.68364067 87.01670664 -25.55970561 90.24219578 -40.5078125 87.3125 C-54.80416472 83.25679724 -65.42105837 75.43443341 -72.74609375 62.4609375 C-75.19882814 57.64715972 -77 53.49843346 -77 48 C-78.25423264 48.01110306 -79.50846527 48.02220612 -80.80070496 48.03364563 C-92.61613187 48.13496954 -104.43147072 48.20994064 -116.24723339 48.25906086 C-122.32198876 48.28516306 -128.39639363 48.32057353 -134.47094727 48.37719727 C-140.33241029 48.43149324 -146.19353601 48.46141584 -152.05523109 48.47438622 C-154.29239526 48.48363031 -156.5295408 48.50168183 -158.76656151 48.52865028 C-161.89841082 48.5649074 -165.02886351 48.56994659 -168.16088867 48.56762695 C-169.08733688 48.58560333 -170.0137851 48.60357971 -170.9683075 48.62210083 C-175.45243667 48.58612469 -177.39712132 48.4521687 -181.08369446 45.68717957 C-183.58218369 42.18362073 -183.61358327 40.21838498 -183 36 C-181.23984869 32.8149643 -180.50109084 32.16703028 -177 31 C-175.61650995 30.91183533 -174.22914505 30.87800609 -172.84284973 30.87974548 C-171.57454063 30.87768349 -171.57454063 30.87768349 -170.28060913 30.87557983 C-169.35632111 30.87917511 -168.43203308 30.88277039 -167.47973633 30.88647461 C-166.01604362 30.88625557 -166.01604362 30.88625557 -164.52278137 30.8860321 C-161.29250884 30.88672962 -158.06229373 30.89451455 -154.83203125 30.90234375 C-152.59429455 30.9042085 -150.35655744 30.90563213 -148.11882019 30.90663147 C-142.22513708 30.91045216 -136.33147856 30.92027865 -130.43780518 30.93133545 C-124.42533704 30.94155919 -118.41286494 30.94613116 -112.40039062 30.95117188 C-100.60024961 30.96190129 -88.80012685 30.97897237 -77 31 C-76.87955322 30.33033203 -76.75910645 29.66066406 -76.63500977 28.97070312 C-76.46799561 28.08318359 -76.30098145 27.19566406 -76.12890625 26.28125 C-75.96720947 25.40533203 -75.8055127 24.52941406 -75.63891602 23.62695312 C-72.96992656 12.65319442 -63.77430538 3.05255228 -54.3984375 -2.75390625 C-36.75185976 -11.92207938 -16.53081569 -11.41644309 0 0 Z M-55 20 C-60.54247178 28.80975228 -62.6056788 37.5443322 -60.38671875 47.84765625 C-57.84468125 55.80972084 -53.54456153 62.18573819 -46.36328125 66.6328125 C-37.82528808 70.99529076 -29.77880537 72.50533585 -20.23828125 70.38671875 C-11.67336891 67.33454434 -5.12901625 61.79172961 -1 53.6875 C2.75844377 45.37455319 3.61634028 36.49497251 0.5 27.75 C-3.85555412 18.38403573 -10.51541178 12.77361947 -20 9 C-33.25469181 4.5817694 -46.20550388 9.83515833 -55 20 Z " fill="#000000" transform="translate(185,395)"/>
<path d="M0 0 C11.12684142 8.38079402 16.97957895 17.22298221 20.6875 30.6875 C20.6875 31.3475 20.6875 32.0075 20.6875 32.6875 C21.24556965 32.68381283 21.8036393 32.68012566 22.37862015 32.67632675 C35.95760729 32.58798986 49.53654409 32.52205274 63.11575699 32.48025131 C69.68258606 32.45935804 76.24920808 32.43100805 82.81591797 32.38574219 C89.1506835 32.34234741 95.48524961 32.31837601 101.82015228 32.30799103 C104.23954153 32.30058828 106.65891961 32.28613284 109.07822418 32.26457977 C112.46157092 32.23563134 115.84408883 32.23154053 119.22753906 32.23339844 C120.73481316 32.21182678 120.73481316 32.21182678 122.27253723 32.18981934 C129.05797729 32.23025846 129.05797729 32.23025846 132.30804443 34.59088135 C133.79466699 36.85038188 134.22940747 38.00542175 134.1875 40.6875 C134.20296875 41.6775 134.20296875 41.6775 134.21875 42.6875 C133.38968655 45.80868007 132.32602607 46.77105804 129.6875 48.6875 C126.20540113 49.2839938 122.75215426 49.1920448 119.22753906 49.14160156 C118.16381577 49.14218567 117.10009247 49.14276978 116.00413513 49.14337158 C112.48680026 49.14058401 108.97031191 49.10945886 105.453125 49.078125 C103.0150397 49.07066504 100.57694841 49.06497095 98.13885498 49.06097412 C91.72059588 49.04569867 85.30269862 49.00639977 78.88458252 48.9621582 C72.33586523 48.92124707 65.78708949 48.90297196 59.23828125 48.8828125 C46.38786642 48.83990789 33.53770245 48.77240142 20.6875 48.6875 C20.487864 49.61478661 20.487864 49.61478661 20.28419495 50.56080627 C20.0189225 51.77702919 20.0189225 51.77702919 19.74829102 53.01782227 C19.57395035 53.82163834 19.39960968 54.62545441 19.21998596 55.45362854 C16.41031617 67.24068324 7.24976677 76.79986436 -2.68359375 83.21484375 C-14.44154981 89.80139566 -27.80506645 90.43018576 -40.9140625 88.02734375 C-53.95344042 84.13574646 -64.35868214 74.92613824 -71.0234375 63.25390625 C-73.36661376 58.58885533 -75.3125 53.94780884 -75.3125 48.6875 C-75.93519217 48.68901888 -76.55788434 48.69053776 -77.19944596 48.69210267 C-114.08361004 48.78156365 -150.96775811 48.85022024 -187.85200842 48.89176132 C-192.27812949 48.8967643 -196.70425035 48.90194158 -201.13037109 48.90722656 C-202.45214427 48.90880043 -202.45214427 48.90880043 -203.80061993 48.91040608 C-218.07927548 48.92782386 -232.35786678 48.95936909 -246.63648418 48.99611118 C-261.28146019 49.03348244 -275.9264025 49.05572776 -290.57142425 49.06385398 C-299.61235837 49.06934969 -308.65311093 49.0867237 -317.69398919 49.11916587 C-323.88887405 49.1402667 -330.08366469 49.14671013 -336.2785829 49.14150551 C-339.85582379 49.13893678 -343.43274682 49.14294702 -347.00993156 49.1643219 C-350.88412031 49.18730305 -354.75789146 49.17947858 -358.63214111 49.16851807 C-359.76831949 49.18016943 -360.90449788 49.1918208 -362.07510591 49.20382524 C-363.62845474 49.19187894 -363.62845474 49.19187894 -365.21318436 49.17969131 C-366.10780545 49.1812102 -367.00242655 49.18272908 -367.92415738 49.18429399 C-371.08728954 48.5263377 -372.29516938 47.15164736 -374.3125 44.6875 C-374.84375 42.6875 -374.84375 42.6875 -374.8125 40.6875 C-374.8228125 40.0275 -374.833125 39.3675 -374.84375 38.6875 C-374.07203345 35.78221417 -372.60026619 34.59514819 -370.3125 32.6875 C-367.92415738 32.19070601 -367.92415738 32.19070601 -365.21318436 32.19530869 C-364.17761847 32.18734449 -363.14205258 32.1793803 -362.07510591 32.17117476 C-360.37083833 32.18865181 -360.37083833 32.18865181 -358.63214111 32.20648193 C-357.42407547 32.20306423 -356.21600982 32.19964653 -354.97133613 32.19612527 C-351.61656165 32.19066958 -348.26271763 32.20319228 -344.90805554 32.22323751 C-341.2911869 32.24049352 -337.67434756 32.23466713 -334.05744934 32.23162842 C-327.79049097 32.22952987 -321.52369904 32.24209165 -315.25678253 32.26457977 C-306.19587547 32.29707267 -297.13504898 32.307504 -288.07408997 32.31253174 C-273.37372919 32.32128866 -258.67345713 32.34791498 -243.97314453 32.38574219 C-229.69222457 32.42245202 -215.4113287 32.45076881 -201.13037109 32.46777344 C-199.81020189 32.46934978 -199.81020189 32.46934978 -198.4633626 32.47095796 C-194.04814427 32.47617807 -189.63292577 32.48123291 -185.21770716 32.48620558 C-148.58257545 32.52767996 -111.94754463 32.59813918 -75.3125 32.6875 C-75.112864 31.76021339 -75.112864 31.76021339 -74.90919495 30.81419373 C-74.6439225 29.59797081 -74.6439225 29.59797081 -74.37329102 28.35717773 C-74.19895035 27.55336166 -74.02460968 26.74954559 -73.84498596 25.92137146 C-71.03531617 14.13431676 -61.87476677 4.57513564 -51.94140625 -1.83984375 C-35.98537759 -10.77806486 -15.21860832 -10.10024229 0 0 Z M-49.3125 17.6875 C-49.86808594 18.19023437 -50.42367188 18.69296875 -50.99609375 19.2109375 C-56.49429205 24.83253676 -59.32366112 32.88237259 -59.8125 40.6875 C-59.07764185 51.42088265 -54.32080505 59.69843377 -46.3125 66.6875 C-43.74088273 68.46302562 -41.25987627 69.66770781 -38.3125 70.6875 C-37.68859375 70.92082031 -37.0646875 71.15414062 -36.421875 71.39453125 C-28.33850065 73.94112276 -20.64557772 72.6037369 -13.0625 69.125 C-4.57241027 64.50603927 0.85474255 57.95554339 3.6875 48.6875 C5.85281981 38.59328851 3.91347053 30.59707365 -1.6171875 21.98046875 C-6.73384935 15.06000676 -13.54986937 10.93578497 -21.9453125 9.1171875 C-32.56134109 7.695668 -41.4771705 10.42044714 -49.3125 17.6875 Z " fill="#000000" transform="translate(376.3125,215.3125)"/>
</svg>
